<mxfile host="app.diagrams.net" modified="2021-06-03T08:44:40.376Z" agent="5.0 (Windows NT 10.0; Win64; x64) AppleWebKit/537.36 (KHTML, like Gecko) Chrome/90.0.4430.93 Safari/537.36" etag="PchmIsNa-Ahzwni8O7b2" version="14.7.3" type="github">
  <diagram id="LArFMKLx5idEl62U3Bvh" name="第 1 页">
    <mxGraphModel dx="1038" dy="492" grid="1" gridSize="10" guides="1" tooltips="1" connect="1" arrows="1" fold="1" page="1" pageScale="1" pageWidth="1169" pageHeight="827" math="0" shadow="0">
      <root>
        <mxCell id="0" />
        <mxCell id="1" parent="0" />
        <mxCell id="Oc-HBAcjNjLHlQL34Thz-14" style="edgeStyle=orthogonalEdgeStyle;rounded=0;orthogonalLoop=1;jettySize=auto;html=1;exitX=0.5;exitY=1;exitDx=0;exitDy=0;entryX=0.5;entryY=0;entryDx=0;entryDy=0;" edge="1" parent="1" source="Oc-HBAcjNjLHlQL34Thz-7" target="Oc-HBAcjNjLHlQL34Thz-10">
          <mxGeometry relative="1" as="geometry" />
        </mxCell>
        <mxCell id="Oc-HBAcjNjLHlQL34Thz-15" style="edgeStyle=orthogonalEdgeStyle;rounded=0;orthogonalLoop=1;jettySize=auto;html=1;exitX=0.5;exitY=1;exitDx=0;exitDy=0;entryX=0.5;entryY=0;entryDx=0;entryDy=0;" edge="1" parent="1" source="Oc-HBAcjNjLHlQL34Thz-7" target="Oc-HBAcjNjLHlQL34Thz-9">
          <mxGeometry relative="1" as="geometry" />
        </mxCell>
        <mxCell id="Oc-HBAcjNjLHlQL34Thz-16" style="edgeStyle=orthogonalEdgeStyle;rounded=0;orthogonalLoop=1;jettySize=auto;html=1;exitX=0.5;exitY=1;exitDx=0;exitDy=0;entryX=0.5;entryY=0;entryDx=0;entryDy=0;" edge="1" parent="1" source="Oc-HBAcjNjLHlQL34Thz-7" target="Oc-HBAcjNjLHlQL34Thz-8">
          <mxGeometry relative="1" as="geometry" />
        </mxCell>
        <mxCell id="Oc-HBAcjNjLHlQL34Thz-17" style="edgeStyle=orthogonalEdgeStyle;rounded=0;orthogonalLoop=1;jettySize=auto;html=1;exitX=0.5;exitY=1;exitDx=0;exitDy=0;entryX=0.5;entryY=0;entryDx=0;entryDy=0;" edge="1" parent="1" source="Oc-HBAcjNjLHlQL34Thz-7" target="Oc-HBAcjNjLHlQL34Thz-11">
          <mxGeometry relative="1" as="geometry" />
        </mxCell>
        <mxCell id="Oc-HBAcjNjLHlQL34Thz-18" style="edgeStyle=orthogonalEdgeStyle;rounded=0;orthogonalLoop=1;jettySize=auto;html=1;exitX=0.5;exitY=1;exitDx=0;exitDy=0;entryX=0.5;entryY=0;entryDx=0;entryDy=0;" edge="1" parent="1" source="Oc-HBAcjNjLHlQL34Thz-7" target="Oc-HBAcjNjLHlQL34Thz-12">
          <mxGeometry relative="1" as="geometry" />
        </mxCell>
        <mxCell id="Oc-HBAcjNjLHlQL34Thz-7" value="主界面" style="rounded=0;whiteSpace=wrap;html=1;" vertex="1" parent="1">
          <mxGeometry x="527" y="90" width="115" height="40" as="geometry" />
        </mxCell>
        <mxCell id="Oc-HBAcjNjLHlQL34Thz-8" value="界面背景" style="rounded=0;whiteSpace=wrap;html=1;" vertex="1" parent="1">
          <mxGeometry x="390" y="170" width="30" height="110" as="geometry" />
        </mxCell>
        <mxCell id="Oc-HBAcjNjLHlQL34Thz-9" value="地图组件" style="rounded=0;whiteSpace=wrap;html=1;" vertex="1" parent="1">
          <mxGeometry x="480" y="170" width="30" height="110" as="geometry" />
        </mxCell>
        <mxCell id="Oc-HBAcjNjLHlQL34Thz-10" value="按钮控件" style="rounded=0;whiteSpace=wrap;html=1;" vertex="1" parent="1">
          <mxGeometry x="570" y="170" width="30" height="110" as="geometry" />
        </mxCell>
        <mxCell id="Oc-HBAcjNjLHlQL34Thz-11" value="开关控件" style="rounded=0;whiteSpace=wrap;html=1;" vertex="1" parent="1">
          <mxGeometry x="660" y="170" width="30" height="110" as="geometry" />
        </mxCell>
        <mxCell id="Oc-HBAcjNjLHlQL34Thz-12" value="图标组件" style="rounded=0;whiteSpace=wrap;html=1;" vertex="1" parent="1">
          <mxGeometry x="750" y="170" width="30" height="110" as="geometry" />
        </mxCell>
      </root>
    </mxGraphModel>
  </diagram>
</mxfile>
